<svg xmlns="http://www.w3.org/2000/svg" width="800" height="400" viewBox="0 0 800 400"><g><title>Combining Proven Safety With AI in Tic-Tac-Toe</title><line id="svg_6" x1="97.5" x2="97.5" y1="0" y2="295" fill="none" stroke="#000" stroke-width="5"/><line id="svg_8" x1="197.5" x2="197.5" y1="0" y2="295" fill="none" stroke="#000" stroke-width="5"/><line id="svg_10" x1="0" x2="295" y1="98" y2="97.5" fill="none" stroke="#000" stroke-width="5"/><rect id="svg_16" width="95" height="95" x="0" y="0" fill="#8ef28e" stroke="#000" stroke-width="0"><title>Legal Space</title></rect><rect id="svg_18" width="95" height="95" x="200" y="100" fill="#8ef28e" stroke="#000" stroke-width="0"><title>Legal Space</title></rect><rect id="svg_20" width="95" height="95" x="100" y="0" fill="#8ef28e" stroke="#000" stroke-width="0"><title>Legal Space</title></rect><rect id="svg_21" width="95" height="95" x="199" y="0" fill="#8ef28e" stroke="#000" stroke-width="0"><title>Legal Space</title></rect><rect id="svg_22" width="95" height="95" x="200" y="200" fill="red" stroke="#000" stroke-width="0"><title>Not Legal Space</title></rect><rect id="svg_23" width="95" height="95" x="100" y="100" fill="red" stroke="#000" stroke-width="0"><title>Not Legal Space</title></rect><rect id="svg_24" width="95" height="95" x="100" y="200" fill="#8ef28e" stroke="#000" stroke-width="0"><title>Legal Space</title></rect><rect id="svg_25" width="95" height="95" x="0" y="100" fill="#8ef28e" stroke="#000" stroke-width="0"><title>Legal Space</title></rect><rect id="svg_26" width="95" height="95" x="0" y="200" fill="#8ef28e" stroke="#000" stroke-width="0"><title>Legal Space</title></rect><line id="svg_27" x1="0" x2="295" y1="197.5" y2="197.5" fill="none" stroke="#000" stroke-width="5"/><ellipse id="svg_14" cx="150" cy="147.5" fill="none" stroke="#000" stroke-width="16" rx="25" ry="25"><title>O</title></ellipse><g id="svg_15"><title>X</title><line id="svg_11" x1="223" x2="273" y1="222.5" y2="272.5" fill="none" stroke="#000" stroke-width="16"/><line id="svg_13" x1="223" x2="273" y1="272.5" y2="222.5" fill="none" stroke="#000" stroke-width="16"/></g><rect id="svg_28" width="80" height="80" x="207" y="7" fill="#007fff" stroke="#000" stroke-width="0"><title>Strategy Space</title></rect><rect id="svg_29" width="80" height="80" x="9" y="206" fill="#007fff" stroke="#000" stroke-width="0"><title>Strategy Space</title></rect><ellipse id="svg_30" cx="50" cy="246" fill="#000" stroke="#ff0" stroke-dasharray="5 5" stroke-width="3" rx="24" ry="25"><title>AI Chosen Space</title></ellipse><rect id="svg_31" width="406" height="293" x="337" y="1" fill="red" stroke="#000" stroke-width="3"><title>All Moves</title></rect><text id="svg_32" x="358" y="36" fill="#fff" stroke="#fff" stroke-width="0" font-family="Verdana" font-size="24" text-anchor="start" xml:space="preserve">All Moves</text><rect id="svg_33" width="308" height="218" x="370" y="59" fill="#8ef28e" stroke="#000" stroke-width="3"><title>Legal Moves</title></rect><text id="svg_34" x="378" y="86" fill="#000" stroke="#000" stroke-width="0" font-family="Verdana" font-size="24" text-anchor="start" xml:space="preserve">Legal Moves</text><rect id="svg_36" width="206" height="121" x="398" y="115" fill="#007fff" stroke="#000" stroke-width="0"><title>Strategy Moves</title></rect><text id="svg_37" x="410" y="145" fill="#fff" stroke="#000" stroke-width="0" font-family="Verdana" font-size="24" text-anchor="start" xml:space="preserve">Strategy Moves</text><text id="svg_38" x="150" y="353" fill="#000" stroke="#000" stroke-width="0" font-family="Verdana" font-size="24" text-anchor="start" xml:space="preserve">AI Chosen Move:</text><ellipse id="svg_39" cx="437" cy="191" fill="#000" stroke="#ff0" stroke-dasharray="5 5" stroke-width="3" rx="24" ry="25"><title>AI Chosen Space</title></ellipse><ellipse id="svg_41" cx="50" cy="45" fill="#000" stroke="#ff0" stroke-dasharray="5 5" stroke-width="3" rx="24" ry="25"><title>AI Chosen Space</title></ellipse><ellipse id="svg_42" cx="640" cy="192" fill="#000" stroke="#ff0" stroke-dasharray="5 5" stroke-width="3" rx="24" ry="25"><title>AI Chosen Space</title></ellipse><ellipse id="svg_43" cx="400" cy="347" fill="#000" stroke="#ff0" stroke-dasharray="5 5" stroke-width="3" rx="24" ry="25"><title>AI Chosen Space</title></ellipse></g></svg>